<svg width="33" height="32" viewBox="0 0 33 32" fill="none" xmlns="http://www.w3.org/2000/svg">
<path fill-rule="evenodd" clip-rule="evenodd" d="M16.793 12C14.5838 12 12.793 13.7909 12.793 16C12.793 18.2091 14.5838 20 16.793 20C19.0021 20 20.793 18.2091 20.793 16C20.793 13.7909 19.0021 12 16.793 12ZM10.793 16C10.793 12.6863 13.4793 10 16.793 10C20.1067 10 22.793 12.6863 22.793 16C22.793 19.3137 20.1067 22 16.793 22C13.4793 22 10.793 19.3137 10.793 16Z" fill="#858584"/>
<path fill-rule="evenodd" clip-rule="evenodd" d="M11.293 5.5C8.53154 5.5 6.29297 7.73858 6.29297 10.5V21.5C6.29297 24.2614 8.53154 26.5 11.293 26.5H22.293C25.0544 26.5 27.293 24.2614 27.293 21.5V10.5C27.293 7.73858 25.0544 5.5 22.293 5.5H11.293ZM4.29297 10.5C4.29297 6.63401 7.42698 3.5 11.293 3.5H22.293C26.159 3.5 29.293 6.63401 29.293 10.5V21.5C29.293 25.366 26.159 28.5 22.293 28.5H11.293C7.42698 28.5 4.29297 25.366 4.29297 21.5V10.5Z" fill="#858584"/>
<path d="M23.293 11C24.1214 11 24.793 10.3284 24.793 9.5C24.793 8.67157 24.1214 8 23.293 8C22.4645 8 21.793 8.67157 21.793 9.5C21.793 10.3284 22.4645 11 23.293 11Z" fill="#858584"/>
</svg>
