<svg width="11" height="13" viewBox="0 0 11 13" fill="none" xmlns="http://www.w3.org/2000/svg">
<path d="M0.290039 11.2207V4.8457H10.79V11.2207C10.79 11.8535 10.2744 12.3457 9.66504 12.3457H1.41504C0.782227 12.3457 0.290039 11.8535 0.290039 11.2207ZM7.79004 6.62695V7.56445C7.79004 7.72852 7.90723 7.8457 8.07129 7.8457H9.00879C9.14941 7.8457 9.29004 7.72852 9.29004 7.56445V6.62695C9.29004 6.48633 9.14941 6.3457 9.00879 6.3457H8.07129C7.90723 6.3457 7.79004 6.48633 7.79004 6.62695ZM7.79004 9.62695V10.5645C7.79004 10.7285 7.90723 10.8457 8.07129 10.8457H9.00879C9.14941 10.8457 9.29004 10.7285 9.29004 10.5645V9.62695C9.29004 9.48633 9.14941 9.3457 9.00879 9.3457H8.07129C7.90723 9.3457 7.79004 9.48633 7.79004 9.62695ZM4.79004 6.62695V7.56445C4.79004 7.72852 4.90723 7.8457 5.07129 7.8457H6.00879C6.14941 7.8457 6.29004 7.72852 6.29004 7.56445V6.62695C6.29004 6.48633 6.14941 6.3457 6.00879 6.3457H5.07129C4.90723 6.3457 4.79004 6.48633 4.79004 6.62695ZM4.79004 9.62695V10.5645C4.79004 10.7285 4.90723 10.8457 5.07129 10.8457H6.00879C6.14941 10.8457 6.29004 10.7285 6.29004 10.5645V9.62695C6.29004 9.48633 6.14941 9.3457 6.00879 9.3457H5.07129C4.90723 9.3457 4.79004 9.48633 4.79004 9.62695ZM1.79004 6.62695V7.56445C1.79004 7.72852 1.90723 7.8457 2.07129 7.8457H3.00879C3.14941 7.8457 3.29004 7.72852 3.29004 7.56445V6.62695C3.29004 6.48633 3.14941 6.3457 3.00879 6.3457H2.07129C1.90723 6.3457 1.79004 6.48633 1.79004 6.62695ZM1.79004 9.62695V10.5645C1.79004 10.7285 1.90723 10.8457 2.07129 10.8457H3.00879C3.14941 10.8457 3.29004 10.7285 3.29004 10.5645V9.62695C3.29004 9.48633 3.14941 9.3457 3.00879 9.3457H2.07129C1.90723 9.3457 1.79004 9.48633 1.79004 9.62695ZM9.66504 1.8457C10.2744 1.8457 10.79 2.36133 10.79 2.9707V4.0957H0.290039V2.9707C0.290039 2.36133 0.782227 1.8457 1.41504 1.8457H2.54004V0.720703C2.54004 0.533203 2.7041 0.345703 2.91504 0.345703H3.66504C3.85254 0.345703 4.04004 0.533203 4.04004 0.720703V1.8457H7.04004V0.720703C7.04004 0.533203 7.2041 0.345703 7.41504 0.345703H8.16504C8.35254 0.345703 8.54004 0.533203 8.54004 0.720703V1.8457H9.66504Z" fill="#00FCDB"/>
</svg>
