<svg width="34" height="34" viewBox="0 0 34 34" fill="none" xmlns="http://www.w3.org/2000/svg">
    <path d="M4.874 22.976 8.088 4.768a1.049 1.049 0 0 1 1.222-.864l7.331 1.289a1.076 1.076 0 0 1 .864 1.235l-3.228 18.315a4.794 4.794 0 0 1-5.458 3.891c-2.643-.425-4.41-3.015-3.945-5.658z" stroke="#fff" stroke-width="3" stroke-linecap="round" stroke-linejoin="round"/>
    <path d="m15.71 16.575 9.683-3.52a1.062 1.062 0 0 1 1.368.638l2.55 6.986a1.062 1.062 0 0 1-.638 1.354l-17.478 6.362" stroke="#fff" stroke-width="3" stroke-linecap="round" stroke-linejoin="round"/>
    <path d="M29.219 21.582v6.043a1.063 1.063 0 0 1-1.063 1.063H9.563" stroke="#fff" stroke-width="3" stroke-linecap="round" stroke-linejoin="round"/>
    <path d="M9.563 25.5a1.594 1.594 0 1 0 0-3.187 1.594 1.594 0 0 0 0 3.187z" fill="#fff"/>
</svg>
