<svg width="33" height="32" viewBox="0 0 33 32" fill="none" xmlns="http://www.w3.org/2000/svg">
<path fill-rule="evenodd" clip-rule="evenodd" d="M14.3211 11.1183C14.6463 10.9443 15.0408 10.9634 15.3477 11.168L21.3477 15.168C21.6259 15.3534 21.793 15.6656 21.793 16C21.793 16.3344 21.6259 16.6466 21.3477 16.8321L15.3477 20.8321C15.0408 21.0366 14.6463 21.0557 14.3211 20.8817C13.996 20.7077 13.793 20.3688 13.793 20V12C13.793 11.6312 13.996 11.2923 14.3211 11.1183ZM15.793 13.8685V18.1315L18.9902 16L15.793 13.8685Z" fill="#858584"/>
<path fill-rule="evenodd" clip-rule="evenodd" d="M16.7915 5.05082L16.7746 5.05078L16.7118 5.05081C16.6573 5.05093 16.5779 5.05133 16.4761 5.05241C16.2724 5.05457 15.9786 5.05947 15.6136 5.07043C14.8841 5.09232 13.8675 5.13847 12.7167 5.23563C10.4403 5.42782 7.54225 5.82669 5.31105 6.6792L5.29635 6.68495C4.85808 6.86039 4.46717 7.13637 4.15515 7.49064C3.84313 7.84491 3.61874 8.26755 3.50008 8.72447L3.49911 8.72824C3.1877 9.9468 2.79297 12.2065 2.79297 16.0008C2.79297 19.7952 3.1877 22.0549 3.49911 23.2734L3.50008 23.2772C3.61874 23.7341 3.84313 24.1568 4.15515 24.511C4.46717 24.8653 4.85807 25.1413 5.29635 25.3167L5.31105 25.3225C7.54225 26.175 10.4403 26.5739 12.7167 26.766C13.8675 26.8632 14.8841 26.9094 15.6136 26.9312C15.9786 26.9422 16.2724 26.9471 16.4761 26.9493C16.5779 26.9504 16.6573 26.9507 16.7118 26.9509L16.7746 26.9509L16.7915 26.9509H16.7945L16.8113 26.9509L16.8741 26.9509C16.9286 26.9507 17.008 26.9504 17.1099 26.9493C17.3135 26.9471 17.6074 26.9422 17.9724 26.9312C18.7018 26.9094 19.7184 26.8632 20.8693 26.766C23.1456 26.5739 26.0437 26.175 28.2749 25.3225L28.2896 25.3167C28.7279 25.1413 29.1188 24.8653 29.4308 24.511C29.7428 24.1568 29.9672 23.7341 30.0859 23.2772L30.0868 23.2734C30.3982 22.0549 30.793 19.7952 30.793 16.0008C30.793 12.2065 30.3982 9.9468 30.0868 8.72824L30.0859 8.72447C29.9672 8.26755 29.7428 7.84491 29.4308 7.49064C29.1188 7.13637 28.7279 6.86039 28.2896 6.68495L28.2749 6.6792C26.0437 5.82669 23.1456 5.42782 20.8693 5.23563C19.7184 5.13847 18.7018 5.09232 17.9724 5.07043C17.6074 5.05947 17.3135 5.05457 17.1099 5.05241C17.008 5.05133 16.9286 5.05093 16.8741 5.05081L16.8113 5.05078L16.7945 5.05082H16.7915ZM16.7877 24.9509L16.7984 24.9508L16.8016 24.9509L16.8147 24.9509L16.8697 24.9509C16.9188 24.9508 16.9926 24.9504 17.0886 24.9494C17.2807 24.9473 17.5616 24.9427 17.9124 24.9321C18.6146 24.9111 19.5941 24.8666 20.701 24.7731C22.9371 24.5843 25.5971 24.2028 27.5526 23.4574C27.6974 23.3984 27.8265 23.3066 27.9299 23.1892C28.0344 23.0705 28.1097 22.929 28.1497 22.7761C28.4132 21.7438 28.793 19.6539 28.793 16.0008C28.793 12.3478 28.4132 10.2578 28.1497 9.22562C28.1097 9.07265 28.0344 8.93117 27.9299 8.81251C27.8265 8.69512 27.6974 8.60331 27.5526 8.54424C25.5971 7.79889 22.9371 7.41733 20.701 7.22854C19.5941 7.13509 18.6146 7.09061 17.9124 7.06953C17.5616 7.059 17.2807 7.05433 17.0886 7.0523C16.9926 7.05128 16.9188 7.05092 16.8697 7.05081L16.8147 7.05078L16.8016 7.05081L16.7987 7.05082L16.7876 7.05088L16.7844 7.05081L16.7713 7.05078L16.7163 7.05081C16.6671 7.05092 16.5933 7.05128 16.4973 7.0523C16.3052 7.05433 16.0244 7.059 15.6736 7.06953C14.9713 7.09061 13.9918 7.13509 12.8849 7.22854C10.6489 7.41733 7.98887 7.79889 6.03336 8.54424C5.88858 8.60331 5.75942 8.69513 5.65603 8.81251C5.55152 8.93117 5.47626 9.07265 5.43627 9.22562C5.1727 10.2578 4.79297 12.3478 4.79297 16.0008C4.79297 19.6539 5.1727 21.7438 5.43627 22.7761C5.47626 22.929 5.55152 23.0705 5.65603 23.1892C5.75942 23.3066 5.88857 23.3984 6.03335 23.4574C7.98886 24.2028 10.6489 24.5843 12.8849 24.7731C13.9918 24.8666 14.9713 24.9111 15.6736 24.9321C16.0244 24.9427 16.3052 24.9473 16.4973 24.9494C16.5933 24.9504 16.6671 24.9508 16.7163 24.9509L16.7713 24.9509L16.7844 24.9509L16.7877 24.9509Z" fill="#858584"/>
</svg>
