<svg width="67" height="67" viewBox="0 0 67 67" fill="none" xmlns="http://www.w3.org/2000/svg">
<g clip-path="url(#clip0_3225_9366)">
<path d="M0 67L4.62064 50.25C1.61729 45.0517 0 39.2759 0 33.2689C0 15.0173 15.0173 0 33.3845 0C51.7516 0 67 15.0173 67 33.2689C67 51.5205 51.7517 67 33.3845 67C27.6086 67 22.0638 65.1517 17.0965 62.3794L0 67Z" fill="#EDEDED"/>
<path d="M18.0202 56.3719L19.0598 56.9495C23.334 59.6064 28.3013 61.2236 33.4995 61.2236C48.6322 61.2236 61.2236 48.6322 61.2236 33.2684C61.2236 17.9046 48.6322 5.77539 33.384 5.77539C18.1357 5.77539 5.77539 18.0202 5.77539 33.2684C5.77539 38.5822 7.27713 43.7805 10.0495 48.1702L10.7427 49.2098L8.08584 58.9133L18.0202 56.3719Z" fill="#55CD6C"/>
<path d="M24.4896 17.7894L22.2948 17.6738C21.6016 17.6738 20.9086 17.9049 20.4465 18.367C19.4068 19.2911 17.6741 21.0238 17.2121 23.3343C16.4035 26.7998 17.6741 30.9584 20.6776 35.117C23.6811 39.2756 29.457 45.9756 39.6224 48.8635C42.8568 49.7876 45.3983 49.21 47.4776 47.9394C49.0949 46.8997 50.1345 45.2825 50.4811 43.5497L50.8276 41.9324C50.9432 41.4703 50.7121 40.8927 50.25 40.6618L42.9724 37.3118C42.5103 37.0807 41.9327 37.1962 41.5862 37.6583L38.6983 41.3548C38.4672 41.5859 38.1207 41.7013 37.7741 41.5859C35.8103 40.8927 29.2259 38.1203 25.6448 31.1894C25.5292 30.8429 25.5292 30.4962 25.7603 30.2652L28.5327 27.1463C28.7638 26.7998 28.8792 26.3378 28.7638 25.9911L25.4138 18.4825C25.2981 18.1359 24.9516 17.7894 24.4896 17.7894Z" fill="#FEFEFE"/>
</g>
<defs>
<clipPath id="clip0_3225_9366">
<rect width="67" height="67" fill="white"/>
</clipPath>
</defs>
</svg>
